HIERARCHY
ROOT Hips
{
	OFFSET 0.00000 0.00000 0.00000
	CHANNELS 6 Xposition Yposition Zposition Zrotation Yrotation Xrotation 
	JOINT LHipJoint
	{
		OFFSET 0 0 0
		CHANNELS 3 Zrotation Yrotation Xrotation
		JOINT LeftHip
		{
			OFFSET 1.55766 -1.60504 1.11378
			CHANNELS 3 Zrotation Yrotation Xrotation
			JOINT LeftKnee
			{
				OFFSET 2.29047 -6.29302 0.00000
				CHANNELS 3 Zrotation Yrotation Xrotation
				JOINT LeftAnkle
				{
					OFFSET 2.52265 -6.93093 0.00000
					CHANNELS 3 Zrotation Yrotation Xrotation
					JOINT LeftToe
					{
						OFFSET 0.17633 -0.48446 2.02656
						CHANNELS 3 Zrotation Yrotation Xrotation
						End Site
						{
							OFFSET 0.00000 -0.00000 1.04989
						}
					}
				}
			}
		}
	}
	JOINT RHipJoint
	{
		OFFSET 0 0 0
		CHANNELS 3 Zrotation Yrotation Xrotation
		JOINT RightHip
		{
			OFFSET -1.48599 -1.60504 1.11378
			CHANNELS 3 Zrotation Yrotation Xrotation
			JOINT RightKnee
			{
				OFFSET -2.27280 -6.24448 0.00000
				CHANNELS 3 Zrotation Yrotation Xrotation
				JOINT RightAnkle
				{
					OFFSET -2.50834 -6.89161 0.00000
					CHANNELS 3 Zrotation Yrotation Xrotation
					JOINT RightToe
					{
						OFFSET -0.26967 -0.74090 2.08741
						CHANNELS 3 Zrotation Yrotation Xrotation
						End Site
						{
							OFFSET -0.00000 -0.00000 1.10614
						}
					}
				}
			}
		}
	}
	JOINT lowerback
	{
		OFFSET 0 0 0
		CHANNELS 3 Zrotation Yrotation Xrotation
		JOINT Chest
		{
			OFFSET 0.06481 2.02437 -0.08472
			CHANNELS 3 Zrotation Yrotation Xrotation
			JOINT Chest2
			{
				OFFSET 0.00015 1.96711 0.18069
				CHANNELS 3 Zrotation Yrotation Xrotation
				JOINT lowerneck
				{
					OFFSET 0 0 0
					CHANNELS 3 Zrotation Yrotation Xrotation
					JOINT Neck
					{
						OFFSET -0.29961 1.68293 -0.13041
						CHANNELS 3 Zrotation Yrotation Xrotation
						JOINT Head
						{
							OFFSET 0.59697 1.61501 -0.14669
							CHANNELS 3 Zrotation Yrotation Xrotation
							End Site
							{
								OFFSET 0.22973 1.74906 -0.10148
							}
						}
					}
				}
				JOINT LeftCollar
				{
					OFFSET 0 0 0
					CHANNELS 3 Zrotation Yrotation Xrotation
					JOINT LeftShoulder
					{
						OFFSET 3.37968 1.02893 0.31147
CHANNELS 3 Zrotation Xrotation Yrotation
						JOINT LeftElbow
						{
OFFSET 0 -5.198070 -0.000000
CHANNELS 3 Zrotation Xrotation Yrotation
							JOINT LeftWrist
							{
OFFSET 0 -3.093700 -0.000000
CHANNELS 3 Zrotation Xrotation Yrotation
								JOINT lhand
								{
									OFFSET 0 0 0
CHANNELS 3 Zrotation Xrotation Yrotation
									JOINT LFingers
									{
OFFSET 0 -0.672630 -0.000000
CHANNELS 3 Zrotation Xrotation Yrotation
										End Site
										{
OFFSET 0 -0.542290 -0.000000
										}
									}
								}
								JOINT LThumb
								{
OFFSET 0 0.000000 0.000000
CHANNELS 3 Zrotation Xrotation Yrotation
									End Site
									{
OFFSET 0 -0.550570 0.550570
									}
								}
							}
						}
					}
				}
				JOINT RightCollar
				{
					OFFSET 0 0 0
					CHANNELS 3 Zrotation Yrotation Xrotation
					JOINT RightShoulder
					{
						OFFSET -3.38254 0.96355 -0.16120
CHANNELS 3 Zrotation Xrotation Yrotation
						JOINT RightElbow
						{
OFFSET 0 -5.452220 -0.000000
CHANNELS 3 Zrotation Xrotation Yrotation
							JOINT RightWrist
							{
OFFSET 0 -3.012840 -0.000000
CHANNELS 3 Zrotation Xrotation Yrotation
								JOINT rhand
								{
									OFFSET 0 0 0
CHANNELS 3 Zrotation Xrotation Yrotation
									JOINT RFingers
									{
OFFSET 0 -0.622300 -0.000000
CHANNELS 3 Zrotation Xrotation Yrotation
										End Site
										{
OFFSET 0 -0.501710 -0.000000
										}
									}
								}
								JOINT RThumb
								{
OFFSET 0 0.000000 0.000000
CHANNELS 3 Zrotation Xrotation Yrotation
									End Site
									{
OFFSET 0 -0.509370 0.509370
									}
								}
							}
						}
					}
				}
			}
		}
	}
}
MOTION
Frames: 12
Frame Time: 0.008333333333333333
-5.760159 16.353700 35.040597 -131.842840 -83.706928 145.226543 0.000000 0.000000 0.000000 -15.794649 -0.044297 -17.965408 0.717465 5.412840 15.089881 0.231651 -10.631405 -10.657556 0.772325 -5.611336 -15.660856 0.000000 0.000000 0.000000 0.000000 0.000000 0.000000 0.000000 0.000000 0.000000 0.000000 0.000000 0.000000 0.000000 0.000000 0.000000 4.475483 2.783339 -13.486880 -1.015997 2.847735 -6.383091 -3.175424 1.190056 1.103507 -29.676390 -9.027565 16.300188 42.250115 -19.314738 -4.767291 20.873907 -12.158566 3.969396 0.000000 0.000000 0.000000 7.113284 11.381716 -36.460346 17.485827 -27.493711 4.309257 -14.959713 -43.938959 6.721938 0.000000 0.000000 0.000000 -7.125000 0.000000 0.000000 -29.356551 22.836036 -18.114045 0.000000 0.000000 0.000000 -36.972117 -30.719681 -8.749003 -115.298878 -57.437740 -81.720962 -57.513451 30.967339 -19.238180 0.000000 0.000000 0.000000 7.125000 0.000000 0.000000 -17.570509 -1.716130 -18.994433
-5.760278 16.353700 35.041191 -131.834519 -83.700985 145.217628 0.000000 0.000000 0.000000 -15.792747 -0.032292 -17.976225 0.718594 5.417119 15.102243 0.231354 -10.645015 -10.660468 0.771374 -5.608008 -15.651169 0.000000 0.000000 0.000000 0.000000 0.000000 0.000000 0.000000 0.000000 0.000000 0.000000 0.000000 0.000000 0.000000 0.000000 0.000000 4.372249 2.756416 -13.457639 -0.920192 2.823606 -6.387073 -3.021673 1.180369 1.072721 -29.804169 -9.001296 16.292165 42.278346 -19.302614 -4.771273 20.924722 -12.153098 3.986988 0.000000 0.000000 0.000000 6.970052 11.392949 -36.400438 17.532482 -27.554332 4.330772 -15.082738 -44.131876 6.626014 0.000000 0.000000 0.000000 -7.125000 0.000000 0.000000 -29.454852 22.914309 -18.131934 0.000000 0.000000 0.000000 -36.836552 -30.482843 -8.262608 -115.171633 -57.465019 -81.613687 -56.637952 30.129818 -18.471740 0.000000 0.000000 0.000000 7.125000 0.000000 0.000000 -17.306926 -0.088990 -18.183300
-5.760494 16.353700 35.041932 -131.853890 -83.697277 145.238347 0.000000 0.000000 0.000000 -15.796189 -0.016837 -17.985439 0.718946 5.418434 15.105957 0.230474 -10.662074 -10.657599 0.769840 -5.602639 -15.635749 0.000000 0.000000 0.000000 0.000000 0.000000 0.000000 0.000000 0.000000 0.000000 0.000000 0.000000 0.000000 0.000000 0.000000 0.000000 4.254149 2.726432 -13.427281 -0.816712 2.796756 -6.396059 -2.852278 1.169370 1.035134 -29.935593 -8.974979 16.292060 42.295062 -19.291072 -4.773312 20.969950 -12.147145 4.002102 0.000000 0.000000 0.000000 6.809136 11.418708 -36.317309 17.585257 -27.622774 4.355250 -15.217033 -44.370363 6.510415 0.000000 0.000000 0.000000 -7.125000 0.000000 0.000000 -29.564910 23.009390 -18.145256 0.000000 0.000000 0.000000 -36.679854 -30.247754 -7.708783 -115.045797 -57.491716 -81.507577 -55.870255 28.862258 -17.675034 0.000000 0.000000 0.000000 7.125000 0.000000 0.000000 -17.101106 1.486945 -17.453394
-5.760732 16.353716 35.042696 -131.882491 -83.694107 145.269052 0.000000 0.000000 0.000000 -15.801138 -0.000668 -17.993957 0.719036 5.418752 15.106787 0.229464 -10.679447 -10.653167 0.768160 -5.596743 -15.618832 0.000000 0.000000 0.000000 0.000000 0.000000 0.000000 0.000000 0.000000 0.000000 0.000000 0.000000 0.000000 0.000000 0.000000 0.000000 4.134636 2.695821 -13.397370 -0.713143 2.769122 -6.406234 -2.682186 1.157957 0.996508 -30.064432 -8.948995 16.294021 42.307428 -19.279317 -4.774468 21.012127 -12.140762 4.015782 0.000000 0.000000 0.000000 6.646435 11.449209 -36.229104 17.639456 -27.693004 4.380422 -15.348350 -44.609508 6.397401 0.000000 0.000000 0.000000 -7.125000 0.000000 0.000000 -29.672585 23.102288 -18.158200 0.000000 0.000000 0.000000 -36.512714 -30.013664 -7.127564 -114.926494 -57.516944 -81.406969 -55.152528 27.423941 -16.875125 0.000000 0.000000 0.000000 7.125000 0.000000 0.000000 -16.920345 3.029287 -16.761257
-5.760970 16.353835 35.043409 -131.930631 -83.691195 145.321352 0.000000 0.000000 0.000000 -15.808091 0.015141 -18.000317 0.718560 5.416909 15.101497 0.228453 -10.693889 -10.646986 0.766377 -5.590383 -15.600527 0.000000 0.000000 0.000000 0.000000 0.000000 0.000000 0.000000 0.000000 0.000000 0.000000 0.000000 0.000000 0.000000 0.000000 0.000000 4.027360 2.665570 -13.371933 -0.620013 2.740356 -6.416873 -2.530039 1.145774 0.960967 -30.171470 -8.925222 16.297884 42.308379 -19.265350 -4.772744 21.042735 -12.132323 4.023805 0.000000 0.000000 0.000000 6.497616 11.489326 -36.141620 17.694015 -27.763491 4.405799 -15.444392 -44.787567 6.329172 0.000000 0.000000 0.000000 -7.125000 0.000000 0.000000 -29.748124 23.157085 -18.175257 0.000000 0.000000 0.000000 -36.308861 -29.783483 -6.467210 -114.847092 -57.533585 -81.339989 -54.600936 25.506296 -16.098047 0.000000 0.000000 0.000000 7.125000 0.000000 0.000000 -16.817586 4.429454 -16.195044
-5.761342 16.353954 35.044149 -131.993285 -83.689708 145.388705 0.000000 0.000000 0.000000 -15.817921 0.031648 -18.005896 0.717870 5.414287 15.093977 0.227416 -10.708439 -10.640858 0.764997 -5.585422 -15.586226 0.000000 0.000000 0.000000 0.000000 0.000000 0.000000 0.000000 0.000000 0.000000 0.000000 0.000000 0.000000 0.000000 0.000000 0.000000 3.935674 2.638706 -13.351146 -0.541557 2.714359 -6.426302 -2.401357 1.134611 0.930749 -30.255607 -8.904244 16.303252 42.305245 -19.250255 -4.771800 21.065736 -12.123319 4.027017 0.000000 0.000000 0.000000 6.370864 11.531405 -36.066472 17.747768 -27.832875 4.430854 -15.515546 -44.917730 6.293332 0.000000 0.000000 0.000000 -7.125000 0.000000 0.000000 -29.800520 23.184466 -18.195862 0.000000 0.000000 0.000000 -36.077673 -29.553274 -5.782264 -114.802659 -57.542888 -81.302521 -54.143821 23.353010 -15.377009 0.000000 0.000000 0.000000 7.125000 0.000000 0.000000 -16.750844 5.697785 -15.706107
-5.761877 16.354073 35.044922 -132.073519 -83.689945 145.474287 0.000000 0.000000 0.000000 -15.831234 0.049003 -18.010532 0.716919 5.410721 15.083755 0.226346 -10.723119 -10.634796 0.764105 -5.582153 -15.576777 0.000000 0.000000 0.000000 0.000000 0.000000 0.000000 0.000000 0.000000 0.000000 0.000000 0.000000 0.000000 0.000000 0.000000 0.000000 3.862870 2.615943 -13.335991 -0.480877 2.691716 -6.434266 -2.301094 1.124686 0.906976 -30.312009 -8.886652 16.310444 42.297162 -19.233792 -4.771800 21.079524 -12.113631 4.024402 0.000000 0.000000 0.000000 6.270839 11.575860 -36.006267 17.800544 -27.900926 4.455519 -15.556554 -44.989881 6.296720 0.000000 0.000000 0.000000 -7.125000 0.000000 0.000000 -29.824887 23.178642 -18.220764 0.000000 0.000000 0.000000 -35.813377 -29.323033 -5.067530 -114.800579 -57.543304 -81.300797 -53.801134 20.914321 -14.723847 0.000000 0.000000 0.000000 7.125000 0.000000 0.000000 -16.727725 6.806436 -15.310762
-5.762549 16.354237 35.045603 -132.164731 -83.689405 145.571763 0.000000 0.000000 0.000000 -15.844455 0.064847 -18.012744 0.715602 5.405966 15.070147 0.225368 -10.734734 -10.628185 0.762848 -5.577603 -15.563622 0.000000 0.000000 0.000000 0.000000 0.000000 0.000000 0.000000 0.000000 0.000000 0.000000 0.000000 0.000000 0.000000 0.000000 0.000000 3.818837 2.599036 -13.328978 -0.443480 2.673646 -6.439851 -2.240354 1.116453 0.892672 -30.331907 -8.873451 16.316171 42.281623 -19.215362 -4.769330 21.080184 -12.102389 4.015612 0.000000 0.000000 0.000000 6.207043 11.622283 -35.959328 17.853274 -27.968793 4.480229 -15.570025 -45.020635 6.329977 0.000000 0.000000 0.000000 -7.125000 0.000000 0.000000 -29.825240 23.147842 -18.246444 0.000000 0.000000 0.000000 -35.497163 -29.090779 -4.318534 -114.884999 -57.525560 -81.371988 -53.571569 18.265854 -14.138476 0.000000 0.000000 0.000000 7.125000 0.000000 0.000000 -16.749800 7.763954 -15.004708
-5.763272 16.354421 35.046267 -132.262230 -83.688783 145.675851 0.000000 0.000000 0.000000 -15.857996 0.079687 -18.013846 0.714150 5.400731 15.055170 0.224459 -10.744676 -10.621581 0.761584 -5.573043 -15.550440 0.000000 0.000000 0.000000 0.000000 0.000000 0.000000 0.000000 0.000000 0.000000 0.000000 0.000000 0.000000 0.000000 0.000000 0.000000 3.787747 2.584677 -13.325752 -0.416533 2.657525 -6.444103 -2.197356 1.108939 0.882940 -30.336736 -8.861907 16.320933 42.263692 -19.195904 -4.765924 21.075911 -12.090463 4.004353 0.000000 0.000000 0.000000 6.159171 11.668771 -35.916850 17.906503 -28.037247 4.505201 -15.574676 -45.043196 6.370384 0.000000 0.000000 0.000000 -7.125000 0.000000 0.000000 -29.818467 23.111208 -18.271057 0.000000 0.000000 0.000000 -35.158725 -28.857871 -3.558934 -115.005113 -57.500265 -81.473269 -53.384454 15.536453 -13.591134 0.000000 0.000000 0.000000 7.125000 0.000000 0.000000 -16.785654 8.646607 -14.735364
-5.764105 16.354658 35.047040 -132.391199 -83.689734 145.811952 0.000000 0.000000 0.000000 -15.875172 0.088720 -18.010934 0.712426 5.394193 15.036449 0.223983 -10.746697 -10.616767 0.761406 -5.572389 -15.548597 0.000000 0.000000 0.000000 0.000000 0.000000 0.000000 0.000000 0.000000 0.000000 0.000000 0.000000 0.000000 0.000000 0.000000 0.000000 3.802070 2.578675 -13.336688 -0.426102 2.647481 -6.441845 -2.216374 1.103650 0.891439 -30.298105 -8.853943 16.320160 42.244079 -19.171834 -4.760456 21.061113 -12.076259 3.986582 0.000000 0.000000 0.000000 6.164579 11.709779 -35.879526 17.965103 -28.112429 4.532778 -15.573249 -45.109761 6.392017 0.000000 0.000000 0.000000 -7.125000 0.000000 0.000000 -29.812345 23.091773 -18.282052 0.000000 0.000000 0.000000 -34.750187 -28.624421 -2.795644 -115.228043 -57.452778 -81.661254 -53.287460 12.616719 -13.229785 0.000000 0.000000 0.000000 7.125000 0.000000 0.000000 -16.824166 9.218584 -14.570737
-5.764985 16.354872 35.047764 -132.520888 -83.689747 145.949494 0.000000 0.000000 0.000000 -15.891578 0.097490 -18.007084 0.710583 5.387271 15.016549 0.223580 -10.746818 -10.612073 0.761396 -5.572361 -15.548510 0.000000 0.000000 0.000000 0.000000 0.000000 0.000000 0.000000 0.000000 0.000000 0.000000 0.000000 0.000000 0.000000 0.000000 0.000000 3.814591 2.571999 -13.349066 -0.433387 2.636596 -6.440019 -2.232123 1.097976 0.900082 -30.258464 -8.846315 16.316599 42.216365 -19.146273 -4.751310 21.040881 -12.059987 3.968067 0.000000 0.000000 0.000000 6.164074 11.752567 -35.829846 18.024064 -28.187971 4.560595 -15.582473 -45.201783 6.395645 0.000000 0.000000 0.000000 -7.125000 0.000000 0.000000 -29.817114 23.087845 -18.289273 0.000000 0.000000 0.000000 -34.336480 -28.384937 -2.037210 -115.492227 -57.395868 -81.883880 -53.193159 9.719509 -12.939018 0.000000 0.000000 0.000000 7.125000 0.000000 0.000000 -16.845369 9.684954 -14.426279
-5.765936 16.355050 35.048418 -132.651639 -83.688380 146.089160 0.000000 0.000000 0.000000 -15.906852 0.105870 -18.001854 0.708562 5.379782 14.994916 0.223283 -10.744144 -10.607556 0.761634 -5.573252 -15.551006 0.000000 0.000000 0.000000 0.000000 0.000000 0.000000 0.000000 0.000000 0.000000 0.000000 0.000000 0.000000 0.000000 0.000000 0.000000 3.824456 2.564332 -13.363567 -0.437309 2.624472 -6.438831 -2.243059 1.091735 0.908937 -30.217337 -8.839183 16.308932 42.176724 -19.118518 -4.736749 21.012651 -12.040671 3.948454 0.000000 0.000000 0.000000 6.154862 11.797973 -35.761974 18.083556 -28.264045 4.588766 -15.607375 -45.331286 6.372763 0.000000 0.000000 0.000000 -7.125000 0.000000 0.000000 -29.837915 23.106744 -18.290937 0.000000 0.000000 0.000000 -33.915164 -28.136569 -1.285925 -115.817144 -57.325084 -82.157507 -53.102822 6.855462 -12.752163 0.000000 0.000000 0.000000 7.125000 0.000000 0.000000 -16.841090 9.995844 -14.311515
